<svg id="eYXwo0ChuMr1" xmlns="http://www.w3.org/2000/svg" xmlns:xlink="http://www.w3.org/1999/xlink" viewBox="0 0 1080 1080" shape-rendering="geometricPrecision" text-rendering="geometricPrecision"><ellipse rx="321.294363" ry="321.294363" transform="translate(540 540)" fill="none" stroke="#fff" stroke-width="100"/><path d="M643.14555,926.00446l7.58408-2.16809l6.95683-2.16567l6.04445-2.05283l7.12789-2.56604l7.12789-2.56604l8.83859-3.42139l9.52287-4.27674l7.01385-3.07925l6.21552-2.85116l9.40882-4.50483l7.07087-3.64948l8.6105-4.78994l6.27255-3.7065l7.75515-4.78995l7.42738-4.56185l7.51268-5.07506l6.72873-4.78994l7.75515-5.81636l6.21552-4.84697l6.1585-4.90399l5.98743-5.07506l7.42735-6.51316l7.28453-6.78215l8.60328-8.41489l7.09614-7.34733l5.58899-6.34256l6.84495-7.66132l8.22649-9.73364l5.84018-7.53572l6.84494-9.16846l4.89822-6.90774l6.54589-9.93331l7.37067-11.73756l6.69133-11.56668l3.78427-7.14806l4.60771-9.10483l3.10721-6.04155h87.00523l-4.39808,10.81682-4.38334,10.34144-4.66458,10.31846-6.49285,14.12195L952.6483,779.3943L937.797,804.22034l-15.73794,22.16611-17.16042,22.53363-10.7629,12.37428-9.30127,10.21452-12.3574,12.09165-11.18272,10.89577-14.20778,12.73404-10.16567,8.35587-10.76308,8.25015-7.55802,5.46881-10.20025,7.18933-10.38459,7.00499-8.54989,5.63781-4.46891,2.738-4.92841,2.76538-6.66146,3.79622-5.43751,3.10715-6.0201,3.23661-5.8259,3.17188-6.75546,3.49295-6.00197,3.00099-6.93671,3.19777-7.37948,3.3744-8.00132,3.15874-9.82451,3.97406-12.62048,5.02369-14.09083,4.90116-16.909,5.14622-17.7667,4.41104-14.64577,3.19659v-82.29565l7.955-2.53004Z" fill="#7ed957" stroke-width="2.16"/></svg>
