<svg xmlns="http://www.w3.org/2000/svg" xmlns:xlink="http://www.w3.org/1999/xlink" width="500" zoomAndPan="magnify" viewBox="0 0 375 374.999991" height="500" preserveAspectRatio="xMidYMid meet" version="1.0"><defs><clipPath id="7143a0ceca"><path d="M 59.503906 59.503906 L 315.792969 59.503906 L 315.792969 315.792969 L 59.503906 315.792969 Z M 59.503906 59.503906 " clip-rule="nonzero"/></clipPath><clipPath id="62e47b74a7"><path d="M 122 122 L 253 122 L 253 252.777344 L 122 252.777344 Z M 122 122 " clip-rule="nonzero"/></clipPath></defs><g clip-path="url(#7143a0ceca)"><path stroke-linecap="butt" transform="matrix(0.237304, 0, 0, 0.237304, 187.647825, 187.64782)" fill="none" stroke-linejoin="miter" d="M 321.287986 0.00260014 C 321.287986 5.253653 321.172759 10.521166 320.909384 15.772219 C 320.646008 21.023271 320.267406 26.257863 319.740654 31.492455 C 319.230364 36.727046 318.588386 41.945177 317.81472 47.146846 C 317.041053 52.348516 316.152161 57.517264 315.115119 62.686011 C 314.094538 67.838298 312.942269 72.974124 311.658313 78.060567 C 310.390818 83.16347 308.991634 88.233452 307.460763 93.270512 C 305.929892 98.291111 304.283794 103.295249 302.506008 108.233543 C 300.744683 113.188298 298.851671 118.09367 296.843431 122.949659 C 294.818731 127.805648 292.695264 132.612254 290.44011 137.369477 C 288.201417 142.1267 285.831036 146.81808 283.361889 151.460076 C 280.876281 156.102072 278.291907 160.661764 275.575845 165.172072 C 272.876244 169.682381 270.061417 174.126845 267.147823 178.505466 C 264.217769 182.867626 261.20541 187.163941 258.061363 191.394413 C 254.933776 195.624885 251.707424 199.756591 248.365845 203.822453 C 245.024267 207.888315 241.600383 211.871872 238.061272 215.773124 C 234.538622 219.657916 230.900746 223.476863 227.197025 227.197044 C 223.476844 230.900765 219.657897 234.538641 215.773105 238.061291 C 211.871853 241.600402 207.888296 245.024285 203.822434 248.365864 C 199.756572 251.707443 195.624866 254.933795 191.394394 258.061382 C 187.163922 261.205429 182.867607 264.217788 178.505447 267.147842 C 174.126826 270.061436 169.682362 272.876263 165.172053 275.575864 C 160.661745 278.291926 156.102053 280.8763 151.460057 283.361908 C 146.818061 285.831055 142.126681 288.201436 137.369458 290.440129 C 132.612235 292.695283 127.805629 294.81875 122.94964 296.84345 C 118.093651 298.85169 113.188279 300.744702 108.233524 302.506027 C 103.29523 304.283813 98.291092 305.929911 93.270493 307.460782 C 88.233433 308.991653 83.163451 310.390837 78.060548 311.658332 C 72.974105 312.942288 67.838279 314.094557 62.685993 315.115138 C 57.517245 316.15218 52.348497 317.041072 47.146828 317.814738 C 41.945158 318.588405 36.727027 319.230383 31.492436 319.740673 C 26.257844 320.267424 21.023252 320.646027 15.7722 320.909403 C 10.521147 321.172778 5.253634 321.288005 0.00258118 321.288005 C -5.264932 321.288005 -10.515985 321.172778 -15.767038 320.909403 C -21.01809 320.646027 -26.252682 320.267424 -31.487273 319.740673 C -36.721865 319.230383 -41.939996 318.588405 -47.141665 317.814738 C -52.343335 317.041072 -57.528543 316.15218 -62.68083 315.115138 C -67.833117 314.094557 -72.968943 312.942288 -78.071846 311.658332 C -83.17475 310.390837 -88.228271 308.991653 -93.265331 307.460782 C -98.302391 305.929911 -103.290068 304.283813 -108.244822 302.506027 C -113.199577 300.744702 -118.088488 298.85169 -122.960938 296.84345 C -127.816928 294.81875 -132.623534 292.695283 -137.364296 290.440129 C -142.121519 288.201436 -146.812898 285.831055 -151.454895 283.361908 C -156.096891 280.8763 -160.673043 278.291926 -165.183352 275.575864 C -169.69366 272.876263 -174.121664 270.061436 -178.500285 267.147842 C -182.878905 264.217788 -187.175221 261.205429 -191.389232 258.061382 C -195.619704 254.933795 -199.767871 251.707443 -203.833733 248.365864 C -207.899595 245.024285 -211.866691 241.600402 -215.767943 238.061291 C -219.669195 234.538641 -223.471682 230.900765 -227.191863 227.197044 C -230.912044 223.476863 -234.53346 219.657916 -238.05611 215.773124 C -241.59522 211.871872 -245.035565 207.888315 -248.360683 203.822453 C -251.702262 199.756591 -254.928614 195.624885 -258.072661 191.394413 C -261.200247 187.163941 -264.229068 182.867626 -267.142661 178.505466 C -270.072716 174.126845 -272.887543 169.682381 -275.587144 165.172072 C -278.286744 160.661764 -280.871118 156.102072 -283.356726 151.460076 C -285.842334 146.81808 -288.196254 142.1267 -290.451409 137.369477 C -292.690102 132.612254 -294.830029 127.805648 -296.838269 122.949659 C -298.846508 118.09367 -300.739521 113.188298 -302.517307 108.233543 C -304.278632 103.295249 -305.92473 98.291111 -307.455601 93.270512 C -308.986472 88.233452 -310.385655 83.16347 -311.669612 78.060567 C -312.937107 72.974124 -314.089376 67.838298 -315.126417 62.686011 C -316.146998 57.517264 -317.052352 52.348516 -317.809557 47.146846 C -318.583223 41.945177 -319.225201 36.727046 -319.751953 31.492455 C -320.262243 26.257863 -320.640846 21.023271 -320.904221 15.772219 C -321.167597 10.521166 -321.299285 5.253653 -321.299285 0.00260014 C -321.299285 -5.264913 -321.167597 -10.515966 -320.904221 -15.767019 C -320.640846 -21.018071 -320.262243 -26.252663 -319.751953 -31.487254 C -319.225201 -36.721846 -318.583223 -41.939977 -317.809557 -47.141646 C -317.052352 -52.343316 -316.146998 -57.528525 -315.126417 -62.680811 C -314.089376 -67.833098 -312.937107 -72.968924 -311.669612 -78.071827 C -310.385655 -83.174731 -308.986472 -88.228252 -307.455601 -93.265312 C -305.92473 -98.302372 -304.278632 -103.290049 -302.517307 -108.244803 C -300.739521 -113.199558 -298.846508 -118.088469 -296.838269 -122.960919 C -294.830029 -127.816909 -292.690102 -132.623515 -290.451409 -137.364277 C -288.196254 -142.1215 -285.842334 -146.812879 -283.356726 -151.454876 C -280.871118 -156.096872 -278.286744 -160.673024 -275.587144 -165.183333 C -272.887543 -169.693641 -270.072716 -174.121645 -267.142661 -178.500266 C -264.229068 -182.878886 -261.200247 -187.175202 -258.072661 -191.389213 C -254.928614 -195.619685 -251.702262 -199.767852 -248.360683 -203.833714 C -245.035565 -207.899576 -241.59522 -211.866672 -238.05611 -215.767924 C -234.53346 -219.669176 -230.912044 -223.471663 -227.191863 -227.191844 C -223.471682 -230.912025 -219.669195 -234.533441 -215.767943 -238.056091 C -211.866691 -241.595201 -207.899595 -245.035546 -203.833733 -248.360664 C -199.767871 -251.702243 -195.619704 -254.928595 -191.389232 -258.072642 C -187.175221 -261.200228 -182.878905 -264.229049 -178.500285 -267.142642 C -174.121664 -270.072697 -169.69366 -272.887524 -165.183352 -275.587125 C -160.673043 -278.286726 -156.096891 -280.871099 -151.454895 -283.356707 C -146.812898 -285.842315 -142.121519 -288.196235 -137.364296 -290.45139 C -132.623534 -292.690083 -127.816928 -294.83001 -122.960938 -296.83825 C -118.088488 -298.846489 -113.199577 -300.739502 -108.244822 -302.517288 C -103.290068 -304.278613 -98.302391 -305.924711 -93.265331 -307.455582 C -88.228271 -308.986453 -83.17475 -310.385636 -78.071846 -311.669593 C -72.968943 -312.937088 -67.833117 -314.089357 -62.68083 -315.126398 C -57.528543 -316.146979 -52.343335 -317.052333 -47.141665 -317.809538 C -41.939996 -318.583204 -36.721865 -319.225182 -31.487273 -319.751934 C -26.252682 -320.262224 -21.01809 -320.640827 -15.767038 -320.904202 C -10.515985 -321.167578 -5.264932 -321.299266 0.00258118 -321.299266 C 5.253634 -321.299266 10.521147 -321.167578 15.7722 -320.904202 C 21.023252 -320.640827 26.257844 -320.262224 31.492436 -319.751934 C 36.727027 -319.225182 41.945158 -318.583204 47.146828 -317.809538 C 52.348497 -317.052333 57.517245 -316.146979 62.685993 -315.126398 C 67.838279 -314.089357 72.974105 -312.937088 78.060548 -311.669593 C 83.163451 -310.385636 88.233433 -308.986453 93.270493 -307.455582 C 98.291092 -305.924711 103.29523 -304.278613 108.233524 -302.517288 C 113.188279 -300.739502 118.093651 -298.846489 122.94964 -296.83825 C 127.805629 -294.83001 132.612235 -292.690083 137.369458 -290.45139 C 142.126681 -288.196235 146.818061 -285.842315 151.460057 -283.356707 C 156.102053 -280.871099 160.661745 -278.286726 165.172053 -275.587125 C 169.682362 -272.887524 174.126826 -270.072697 178.505447 -267.142642 C 182.867607 -264.229049 187.163922 -261.200228 191.394394 -258.072642 C 195.624866 -254.928595 199.756572 -251.702243 203.822434 -248.360664 C 207.888296 -245.035546 211.871853 -241.595201 215.773105 -238.056091 C 219.657897 -234.533441 223.476844 -230.912025 227.197025 -227.191844 C 230.900746 -223.471663 234.538622 -219.669176 238.061272 -215.767924 C 241.600383 -211.866672 245.024267 -207.899576 248.365845 -203.833714 C 251.707424 -199.767852 254.933776 -195.619685 258.061363 -191.389213 C 261.20541 -187.175202 264.217769 -182.878886 267.147823 -178.500266 C 270.061417 -174.121645 272.876244 -169.693641 275.575845 -165.183333 C 278.291907 -160.673024 280.876281 -156.096872 283.361889 -151.454876 C 285.831036 -146.812879 288.201417 -142.1215 290.44011 -137.364277 C 292.695264 -132.623515 294.818731 -127.816909 296.843431 -122.960919 C 298.851671 -118.088469 300.744683 -113.199558 302.506008 -108.244803 C 304.283794 -103.290049 305.929892 -98.302372 307.460763 -93.265312 C 308.991634 -88.228252 310.390818 -83.174731 311.658313 -78.071827 C 312.942269 -72.968924 314.094538 -67.833098 315.115119 -62.680811 C 316.152161 -57.528525 317.041053 -52.343316 317.81472 -47.141646 C 318.588386 -41.939977 319.230364 -36.721846 319.740654 -31.487254 C 320.267406 -26.252663 320.646008 -21.018071 320.909384 -15.767019 C 321.172759 -10.515966 321.287986 -5.264913 321.287986 0.00260014 Z M 321.287986 0.00260014 " stroke="#ffffff" stroke-width="100" stroke-opacity="1" stroke-miterlimit="4"/></g><path fill="#7ed957" d="M 212.125 279.25 L 213.925781 278.734375 L 215.574219 278.21875 L 217.007812 277.734375 L 220.390625 276.515625 L 222.488281 275.703125 L 224.75 274.6875 L 226.414062 273.957031 L 227.890625 273.28125 L 230.121094 272.210938 L 231.800781 271.34375 L 233.84375 270.207031 L 235.332031 269.328125 L 237.171875 268.191406 L 238.933594 267.109375 L 240.71875 265.90625 L 242.3125 264.769531 L 244.15625 263.390625 L 245.628906 262.238281 L 247.089844 261.074219 L 248.511719 259.871094 L 250.273438 258.324219 L 252.003906 256.714844 L 254.042969 254.71875 L 255.726562 252.976562 L 257.054688 251.46875 L 258.679688 249.652344 L 260.632812 247.34375 L 262.015625 245.554688 L 263.640625 243.378906 L 264.804688 241.738281 L 266.355469 239.382812 L 268.105469 236.597656 L 269.695312 233.851562 L 270.59375 232.15625 L 271.683594 229.996094 L 272.421875 228.5625 L 293.070312 228.5625 L 292.027344 231.128906 L 290.984375 233.582031 L 289.878906 236.03125 L 288.339844 239.382812 L 285.570312 244.457031 L 282.046875 250.347656 L 278.3125 255.609375 L 274.238281 260.957031 L 271.683594 263.890625 L 269.476562 266.316406 L 266.546875 269.183594 L 263.890625 271.769531 L 260.519531 274.792969 L 258.109375 276.777344 L 255.554688 278.734375 L 253.761719 280.03125 L 251.339844 281.738281 L 248.875 283.398438 L 246.847656 284.738281 L 245.785156 285.386719 L 244.617188 286.042969 L 243.035156 286.945312 L 241.746094 287.683594 L 240.316406 288.449219 L 238.933594 289.203125 L 237.332031 290.03125 L 235.90625 290.742188 L 234.261719 291.503906 L 232.511719 292.304688 L 230.609375 293.050781 L 228.28125 293.996094 L 225.285156 295.1875 L 221.941406 296.351562 L 217.929688 297.570312 L 213.710938 298.617188 L 210.238281 299.378906 L 210.238281 279.847656 Z M 212.125 279.25 " fill-opacity="1" fill-rule="nonzero"/><g clip-path="url(#62e47b74a7)"><path fill="#ffffff" d="M 177.917969 251.71875 C 156.390625 248.273438 136.886719 233.773438 128.160156 213.675781 C 118.582031 192.472656 121.519531 166.0625 136.109375 147.8125 C 147.527344 132.59375 165.800781 122.398438 185.003906 122.230469 C 201.675781 121.238281 218.433594 127.125 230.835938 138.304688 C 245.285156 150.910156 253.386719 170.21875 252.679688 189.347656 C 252.585938 214.140625 236.457031 237.839844 213.492188 247.152344 C 202.324219 252.21875 189.949219 252.625 177.917969 251.71875 Z M 194.734375 250.199219 C 200.414062 252.234375 212.113281 243.878906 204.332031 240.007812 C 196.769531 237.828125 188.90625 233.839844 181.003906 236.863281 C 176.109375 238.90625 161.652344 237.90625 167.617188 246.148438 C 172.90625 250.789062 180.585938 249.980469 187.140625 250.640625 C 189.675781 250.671875 192.21875 250.542969 194.734375 250.199219 Z M 210.917969 246.304688 C 221.097656 242.476562 230.269531 235.917969 237.027344 227.378906 C 230.972656 222.835938 226.230469 232.671875 221.230469 235.109375 C 217.113281 238.835938 206.152344 240.148438 208.328125 247.109375 C 209.273438 247.1875 210.117188 246.714844 210.917969 246.304688 Z M 165.304688 245.722656 C 164.632812 237.164062 153.574219 236.953125 149.234375 230.832031 C 145.699219 228.222656 139.511719 218.015625 136.359375 225 C 143.691406 234.335938 153.199219 242.777344 164.871094 246.105469 L 165.144531 245.863281 Z M 214.222656 237.542969 C 220.425781 233.832031 228.652344 229.824219 230.226562 222.210938 C 229.863281 215.03125 236.226562 203.886719 228.695312 199.351562 C 221.808594 198.914062 213.875 192.269531 208.042969 198.683594 C 202.242188 204.683594 194.160156 208.128906 188.988281 214.753906 C 189.667969 221.035156 185.6875 230.5 191.125 234.484375 C 197.851562 236.191406 204.863281 240.386719 211.824219 238.792969 L 213.023438 238.238281 Z M 171.113281 237.796875 C 176.273438 235.09375 188.164062 237.457031 187.398438 229.570312 C 186.703125 222.976562 189.925781 213.839844 182.546875 210.28125 C 176.257812 205.332031 169.671875 200.777344 163.207031 196.0625 C 156.464844 196.984375 147.488281 197.6875 143.101562 202.976562 C 142.398438 209.699219 141.332031 217.449219 143.773438 223.789062 C 148.988281 229.492188 155 234.917969 162.136719 238.070312 C 165.085938 239.265625 168.167969 238.5625 171.113281 237.796875 Z M 238.773438 224.21875 C 244.597656 218.167969 246.933594 209.761719 249.6875 202.050781 C 251.828125 195.613281 249.363281 188.527344 245.210938 183.660156 C 240.605469 185.460938 239.441406 193.011719 236.3125 197.253906 C 232.453125 203.859375 234.011719 211.605469 231.933594 218.683594 C 230.871094 223.546875 234.363281 225.582031 238.773438 224.21875 Z M 140.699219 220.675781 C 140.84375 213.140625 143.558594 204.425781 139.515625 197.679688 C 135.835938 193.394531 131.59375 179.773438 125.097656 187.855469 C 122.242188 196.199219 127.15625 204.726562 129.210938 212.742188 C 130.90625 217.601562 134.898438 223.960938 140.699219 220.675781 Z M 190.792969 210.632812 C 197.460938 205.195312 204.5625 200.269531 210.816406 194.335938 C 209.59375 186.367188 205.851562 179.042969 204.296875 171.167969 C 200.910156 163.308594 191.402344 168.066406 185.015625 166.910156 C 178.902344 166.890625 171.445312 165.050781 170.742188 173.160156 C 168.257812 179.492188 166.191406 185.976562 163.871094 192.371094 C 166.386719 199.730469 175.203125 201.734375 180.417969 206.765625 C 183.214844 208.890625 187.019531 214.109375 190.792969 210.632812 Z M 145.871094 198.664062 C 151.691406 196.09375 161.160156 197.199219 163.234375 189.648438 C 166.089844 181.972656 168.929688 174.285156 171.285156 166.441406 C 166.890625 161.15625 163.785156 149.28125 155.824219 150.90625 C 149.222656 152.628906 140.28125 153.25 137.59375 160.648438 C 133.992188 167.246094 131.492188 174.578125 131.226562 182.136719 C 135.378906 187.59375 138.003906 197.417969 144.824219 198.921875 Z M 233.492188 198.722656 C 236.886719 191.886719 242.800781 185.214844 243.515625 177.675781 C 242.542969 170.492188 239.839844 163.558594 235.765625 157.5625 C 229.046875 156.21875 220.367188 147.734375 214.683594 153.027344 C 210.707031 159.011719 202.167969 164.761719 206 172.738281 C 209.207031 179.273438 208.855469 187.402344 213.691406 193.042969 C 218.476562 196.574219 224.953125 196.289062 230.40625 198.570312 C 231.421875 198.753906 232.464844 198.835938 233.492188 198.722656 Z M 250.890625 188.09375 C 251.585938 175.625 247.21875 163.367188 241.03125 152.761719 C 233.917969 154.578125 242.242188 164.097656 243.007812 168.777344 C 245.648438 175.003906 245.195312 184.042969 250.890625 188.09375 Z M 126.917969 184.636719 C 132.558594 178.675781 130.230469 169.320312 134.785156 162.671875 C 136.902344 160.082031 141.746094 150.726562 136.148438 151.546875 C 130.800781 156.855469 128.292969 164.597656 126.125 171.679688 C 125.914062 175.664062 122.128906 183.449219 125.441406 185.566406 L 126.273438 185.074219 Z M 202.722656 165.160156 C 206.402344 159.761719 215.582031 153.609375 213.503906 147.1875 C 208.433594 141.566406 204.992188 132.789062 197.027344 131.039062 C 189.875 130.789062 182.015625 129.183594 175.3125 132.289062 C 169.851562 136.695312 164.890625 142.738281 162.179688 149.183594 C 164.933594 155.199219 169.292969 162.761719 175.878906 165.492188 C 184.769531 165.117188 193.78125 165.597656 202.722656 165.160156 Z M 237.199219 152.785156 C 239.265625 145.140625 230.402344 140.777344 225.757812 136.394531 C 220.398438 132.507812 214.5625 129.113281 208.121094 127.40625 C 199.402344 132.335938 211.15625 139.636719 213.621094 144.898438 C 219.132812 150.914062 227.792969 152.121094 235.027344 155.027344 C 236.289062 155.269531 237.289062 153.945312 237.199219 152.785156 Z M 143.683594 152.699219 C 150.394531 149.976562 159.375 150.496094 163.441406 143.371094 C 165.847656 138.320312 177.042969 131.820312 170.1875 126.636719 C 164.316406 126.339844 159.296875 130.730469 154.199219 133.207031 C 148.636719 136.914062 142.878906 141.054688 139.257812 146.726562 C 138.351562 149.351562 139.996094 155.15625 143.683594 152.699219 Z M 203.34375 129.4375 C 206.839844 123.402344 194.890625 125.144531 191.335938 124.34375 C 186.019531 124.738281 175.578125 121.96875 174.144531 128.316406 C 179.382812 131.824219 186.230469 127.234375 192.167969 128.859375 C 195.859375 129.222656 199.671875 130.710938 203.34375 129.4375 Z M 203.34375 129.4375 " fill-opacity="1" fill-rule="nonzero"/></g></svg>